<?xml version="1.0" standalone="no"?>
<!DOCTYPE svg PUBLIC "-//W3C//DTD SVG 20010904//EN"
 "http://www.w3.org/TR/2001/REC-SVG-20010904/DTD/svg10.dtd">
<svg version="1.0" xmlns="http://www.w3.org/2000/svg"
 width="600.000000pt" height="600.000000pt" viewBox="0 0 600.000000 600.000000"
 preserveAspectRatio="xMidYMid meet">
<metadata>
Created by potrace 1.11, written by Peter Selinger 2001-2013
</metadata>
<g transform="translate(0.000000,600.000000) scale(0.100000,-0.100000)"
fill="#000000" stroke="none">
<path d="M0 3000 l0 -3000 268 0 267 0 38 71 c22 39 45 73 53 76 27 10 14 22
-43 38 -87 25 -149 63 -208 127 -72 78 -95 148 -95 296 l0 105 24 -22 c33 -31
69 -38 140 -29 34 5 93 8 133 8 40 -1 74 4 78 9 9 15 58 14 77 -1 9 -8 22 -51
32 -108 19 -103 44 -171 79 -208 20 -22 87 -62 103 -62 4 0 -18 27 -49 59 -63
66 -70 79 -98 200 -27 118 -45 143 -116 165 -83 26 -173 72 -211 109 -41 40
-74 108 -70 144 3 24 8 28 39 31 52 4 318 -42 424 -74 117 -35 210 -37 278 -5
79 39 76 51 -7 26 -76 -23 -154 -19 -258 15 -75 23 -194 50 -229 50 -17 0 -17
36 2 96 27 87 21 130 -7 55 l-21 -54 -9 34 c-7 29 -9 23 -12 -45 l-3 -78 -32
6 c-18 4 -64 9 -103 13 l-72 6 -12 58 c-12 55 -11 60 14 102 14 25 40 57 58
72 28 24 38 26 79 21 76 -10 149 -35 149 -51 0 -16 18 -19 37 -7 19 12 -9 164
-80 432 -58 222 -70 353 -43 492 27 142 82 249 120 235 33 -13 53 -103 91
-425 26 -222 57 -393 99 -547 l25 -90 -30 -28 c-40 -37 -32 -43 23 -16 40 19
47 28 70 88 38 96 45 126 88 383 42 250 72 371 120 471 47 100 123 177 175
177 25 0 19 -89 -21 -302 -63 -341 -73 -414 -85 -630 l-12 -213 34 -170 c29
-148 33 -190 33 -320 -1 -196 -14 -293 -78 -562 l-53 -223 2404 0 2403 0 0
3000 0 3000 -3000 0 -3000 0 0 -3000z m2188 2080 c203 -22 396 -84 617 -199
147 -76 375 -217 375 -232 0 -14 -47 -59 -62 -59 -7 0 -26 -28 -43 -62 -36
-75 -115 -196 -143 -221 -12 -11 -18 -26 -15 -38 6 -20 -38 -70 -45 -50 -2 7
-12 7 -29 0 -14 -5 -28 -8 -30 -5 -2 2 11 28 30 57 36 57 90 190 101 249 5 23
-10 -1 -42 -65 -55 -114 -83 -142 -211 -218 -90 -54 -204 -99 -326 -128 -97
-23 -128 -24 -61 -1 27 9 44 18 38 20 -7 2 -10 8 -6 13 6 11 -4 11 -31 -1 -14
-6 -15 -9 -5 -10 9 -1 5 -5 -9 -11 -13 -5 -26 -7 -29 -4 -3 3 0 5 7 5 7 0 10
4 6 9 -7 12 -47 6 -100 -15 -22 -9 -60 -15 -85 -14 -25 1 -56 2 -70 2 -14 0
-30 4 -35 8 -17 14 -267 -4 -345 -25 -23 -6 -23 -5 -5 6 18 11 17 13 -18 25
-35 12 -40 11 -74 -11 -42 -29 -47 -30 -93 -7 -34 17 -35 19 -32 67 3 42 36
157 67 230 8 20 8 20 -13 2 -11 -11 -44 -66 -72 -123 -29 -57 -55 -103 -58
-102 -4 0 -9 -1 -12 -2 -3 -1 -15 -3 -27 -4 -18 -2 -20 1 -12 21 5 14 5 23 -1
23 -29 0 12 144 67 240 38 65 108 155 170 217 82 82 39 64 -62 -25 -27 -25
-75 -62 -106 -83 -54 -36 -139 -122 -139 -140 0 -5 -13 -9 -29 -9 -16 0 -32
-6 -35 -12 -4 -7 -4 3 -1 22 13 89 107 221 217 305 79 60 201 122 249 128 57
7 145 37 232 78 80 37 81 38 37 33 -25 -3 -55 -7 -68 -10 -12 -2 -44 -7 -70
-10 -26 -2 -69 -11 -97 -18 -149 -41 -254 -39 -315 4 -32 23 -53 80 -44 116 6
23 6 23 30 -5 58 -70 196 -83 367 -37 53 15 118 36 144 48 43 19 125 32 221
37 18 0 76 -4 130 -9z m1028 -537 c20 -13 27 -14 33 -4 6 10 21 5 62 -17 63
-35 115 -50 103 -30 -5 8 1 7 16 -3 14 -9 35 -22 48 -30 12 -8 22 -18 22 -24
0 -27 44 -154 61 -175 l20 -25 -6 25 c-7 34 -13 72 -14 88 -1 7 -5 10 -11 7
-6 -4 -10 7 -10 25 0 27 2 30 19 20 27 -14 28 -16 35 -95 10 -108 26 -185 47
-228 29 -56 34 -39 9 34 -21 66 -55 247 -48 255 3 2 72 -37 154 -88 253 -156
524 -283 742 -347 l72 -22 0 -40 c0 -88 -57 -260 -88 -265 -7 -1 -8 0 -2 3 15
7 12 33 -4 33 -8 0 -17 -4 -21 -10 -4 -6 -15 -6 -31 0 -71 27 -189 0 -257 -60
-25 -22 -47 -40 -50 -40 -3 0 -51 31 -106 70 -56 38 -101 65 -101 61 0 -17 92
-92 145 -118 30 -15 55 -31 55 -35 0 -14 -16 -9 -94 33 -54 29 -74 35 -69 23
3 -9 25 -29 49 -44 l43 -27 -105 -98 c-105 -98 -326 -336 -353 -380 l-14 -23
-306 104 c-371 125 -589 189 -739 215 -214 36 -513 20 -691 -37 -42 -13 -82
-24 -90 -24 -12 0 -13 24 -8 148 4 81 10 164 13 185 l7 37 62 0 c34 0 65 3 68
7 4 3 -19 16 -50 29 -31 13 -59 27 -64 31 -4 4 0 77 9 161 18 164 15 158 77
163 66 5 72 -10 15 -36 -22 -10 -47 -26 -56 -36 -16 -18 -16 -19 10 -19 15 0
28 -6 31 -12 2 -7 13 -46 25 -85 12 -40 24 -73 27 -73 3 0 2 36 -1 80 l-7 80
29 0 c15 0 57 -17 93 -39 l64 -39 6 -118 c10 -204 57 -261 139 -167 28 32 31
41 28 88 -2 42 0 51 10 43 17 -14 16 6 -2 35 -8 12 -17 40 -21 62 -7 36 -9 37
-14 15 l-7 -24 -24 34 c-13 19 -44 59 -69 89 -43 51 -44 54 -19 48 56 -14 76
-27 108 -67 38 -48 52 -46 21 3 l-21 34 98 6 c115 7 243 42 358 96 58 28 85
36 93 28 7 -7 22 -7 49 1 65 20 242 34 332 27 171 -13 349 -60 480 -125 30
-15 66 -31 80 -35 l25 -7 -25 27 c-35 39 -233 131 -342 160 -178 47 -399 52
-514 11 -40 -14 -40 -13 41 68 51 51 102 116 139 176 82 135 140 220 149 220
4 0 19 -8 33 -17z m-436 -303 c0 -15 -146 -128 -204 -157 -74 -38 -174 -70
-260 -84 -85 -13 -282 -8 -312 9 -27 15 -10 19 110 26 229 15 492 94 626 190
41 29 40 29 40 16z m-640 -500 c0 -11 -4 -20 -10 -20 -5 0 -10 9 -10 20 0 11
5 20 10 20 6 0 10 -9 10 -20z m2254 -154 c97 -41 137 -160 101 -301 -34 -129
-117 -242 -240 -324 -90 -60 -161 -88 -268 -104 l-81 -13 -52 -84 c-65 -105
-140 -190 -208 -236 -28 -18 -54 -34 -58 -34 -18 0 -70 127 -75 181 -7 67 16
181 51 256 40 85 449 523 489 523 10 0 14 6 11 15 -4 10 0 15 11 15 12 0 15
-6 10 -22 -5 -16 11 -5 52 36 92 93 179 125 257 92z m-2194 -25 c0 -12 -20
-25 -27 -18 -7 7 6 27 18 27 5 0 9 -4 9 -9z m1726 -769 c-18 -16 -18 -16 -6 6
6 13 14 21 18 18 3 -4 -2 -14 -12 -24z m29 -21 c-65 -186 -27 -731 64 -896
l22 -40 -4 33 c-2 17 0 32 5 32 13 0 68 -42 68 -52 0 -18 -97 -136 -131 -161
l-36 -26 -44 41 c-77 74 -239 127 -344 113 -75 -10 -182 -55 -260 -111 -206
-144 -327 -350 -328 -556 l0 -87 -77 -20 c-42 -12 -83 -21 -92 -21 -12 0 -114
65 -141 89 -4 4 8 39 27 77 65 128 93 302 89 559 -1 80 -22 242 -39 302 -5 19
0 22 53 33 153 30 475 146 653 235 125 63 241 144 328 228 62 60 173 214 187
257 4 12 9 20 11 17 2 -2 -2 -23 -11 -46z m260 -660 c27 -14 75 -51 107 -83
127 -123 150 -280 61 -410 -90 -132 -346 -454 -446 -560 -119 -129 -135 -138
-240 -138 -129 0 -207 84 -207 223 0 52 6 76 32 127 58 117 134 171 250 178
l67 4 63 67 c159 169 312 394 333 489 8 38 -8 61 -80 115 -31 23 -35 28 -15
22 14 -4 47 -19 75 -34z m-1950 -237 c-142 -95 -224 -187 -294 -333 -54 -111
-75 -209 -69 -319 3 -48 8 -96 12 -107 8 -20 7 -20 -8 0 -22 26 -36 77 -43
152 -19 204 165 522 352 609 71 34 101 32 50 -2z m468 -102 l4 -53 -24 43
c-14 24 -34 53 -45 65 l-21 23 34 14 c33 14 34 14 41 -12 3 -15 8 -51 11 -80z
m791 -40 c-209 -111 -355 -288 -409 -497 -40 -155 2 -334 100 -424 48 -44 41
-54 -15 -20 -59 35 -81 61 -115 132 -99 205 -18 480 204 690 73 69 116 96 211
134 87 35 102 26 24 -15z m-939 -25 c59 -33 85 -90 85 -188 0 -169 -60 -329
-161 -430 -70 -70 -125 -93 -209 -87 -106 8 -152 65 -158 199 -12 242 185 525
368 528 19 0 53 -9 75 -22z m-2233 -614 c9 -43 14 -94 12 -113 -4 -27 4 -53
35 -113 23 -44 41 -86 41 -93 0 -8 7 -28 15 -44 l15 -29 -46 -7 c-62 -9 -87 5
-132 75 -52 80 -77 160 -77 247 0 58 4 76 20 94 17 19 80 58 95 60 3 0 13 -35
22 -77z m257 -389 c2 -2 -15 -4 -38 -4 -35 0 -48 6 -72 31 -16 17 -29 35 -29
39 0 7 126 -53 139 -66z"/>
<path d="M3900 3866 c0 -12 63 -95 73 -96 4 0 3 8 -2 18 -15 27 -70 88 -71 78z"/>
<path d="M3880 3821 c0 -12 82 -123 105 -141 25 -20 17 -5 -48 83 -49 67 -57
75 -57 58z"/>
<path d="M3075 3760 c-77 -9 -165 -37 -196 -62 -13 -11 -18 -17 -11 -13 16 9
15 1 -7 -43 -16 -32 -29 -41 -78 -57 l-58 -20 48 -3 c26 -2 47 -5 47 -8 0 -3
-7 -16 -16 -29 -22 -34 -11 -31 42 10 53 40 92 47 224 43 l95 -3 6 -80 c10
-125 47 -195 102 -195 69 0 135 88 145 193 l5 59 51 -7 c28 -3 55 -10 60 -15
10 -10 -32 -71 -78 -112 -58 -51 -3 -30 96 38 l98 65 57 -6 58 -6 -70 47 c-38
25 -104 63 -145 83 -69 33 -83 36 -180 40 -145 4 -372 -18 -463 -45 -16 -5
-18 -1 -15 28 3 30 8 35 58 52 79 27 234 32 355 12 108 -19 133 -15 56 8 -88
26 -202 36 -286 26z m161 -231 c3 -6 1 -16 -5 -22 -9 -9 -14 -8 -21 3 -9 15
-4 30 10 30 5 0 12 -5 16 -11z m94 -158 c0 -14 -18 -23 -30 -16 -6 4 -8 11 -5
16 8 12 35 12 35 0z"/>
<path d="M4315 3496 c-78 -35 -160 -160 -220 -339 -45 -134 -29 -144 22 -12
39 104 83 186 95 179 17 -11 38 -71 38 -108 0 -25 -13 -54 -45 -101 -44 -64
-44 -65 -16 -51 97 51 128 189 56 256 -14 13 -25 29 -25 35 0 6 16 30 36 53
86 100 161 93 172 -16 5 -58 -16 -140 -59 -224 -35 -69 -21 -77 21 -12 42 67
64 139 65 215 0 74 -15 111 -52 128 -31 14 -51 13 -88 -3z"/>
<path d="M2478 1620 c-166 -50 -298 -325 -228 -477 52 -115 203 -34 302 162
26 50 32 75 36 152 5 105 -7 149 -45 164 -28 10 -28 10 -65 -1z"/>
</g>
</svg>
