<?xml version="1.0" standalone="no"?>
<!DOCTYPE svg PUBLIC "-//W3C//DTD SVG 20010904//EN"
 "http://www.w3.org/TR/2001/REC-SVG-20010904/DTD/svg10.dtd">
<svg version="1.0" xmlns="http://www.w3.org/2000/svg"
 width="705.000000pt" height="705.000000pt" viewBox="0 0 705.000000 705.000000"
 preserveAspectRatio="xMidYMid meet">
<metadata>
Created by potrace 1.11, written by Peter Selinger 2001-2013
</metadata>
<g transform="translate(0.000000,705.000000) scale(0.100000,-0.100000)"
fill="#000000" stroke="none">
<path d="M1419 6225 c-2 -2 -24 -4 -49 -6 -25 -1 -49 -5 -54 -7 -4 -3 -25 -6
-45 -8 -20 -2 -47 -6 -61 -8 -14 -3 -41 -9 -60 -13 -46 -9 -50 -10 -52 -12 -2
-2 -14 -5 -28 -7 -43 -8 -202 -67 -260 -96 -30 -15 -60 -28 -67 -28 -6 0 -13
-4 -15 -8 -1 -4 -28 -23 -58 -41 -66 -40 -137 -98 -204 -166 -54 -55 -156
-188 -156 -204 0 -5 -3 -11 -7 -13 -9 -3 -96 -188 -108 -228 -1 -3 -11 -36
-23 -75 -22 -71 -45 -170 -45 -192 0 -7 -4 -13 -9 -13 -5 0 -7 -4 -3 -9 3 -6
1 -38 -4 -73 -13 -85 -25 -278 -22 -340 1 -17 32 -18 496 -18 389 0 495 3 495
13 6 205 13 313 25 377 17 92 37 160 46 160 5 0 8 3 8 8 -10 59 111 206 207
253 27 13 54 24 59 25 6 1 30 7 55 14 43 12 234 16 275 6 33 -8 78 -23 110
-37 17 -7 33 -13 36 -13 4 -1 20 -12 37 -26 17 -14 40 -32 51 -40 12 -8 21
-21 21 -29 0 -8 3 -11 7 -8 16 17 91 -166 107 -263 25 -149 25 -417 0 -530 -3
-14 -7 -36 -10 -50 -10 -50 -44 -150 -64 -189 -11 -23 -17 -41 -13 -41 5 0 3
-4 -2 -8 -6 -4 -23 -27 -39 -52 -79 -123 -219 -218 -349 -236 -23 -4 -134 -7
-247 -8 -113 -1 -209 -4 -215 -8 -11 -7 -14 -683 -2 -694 3 -4 116 -8 249 -9
134 -1 255 -5 271 -9 15 -3 37 -8 50 -10 151 -27 302 -148 376 -301 75 -152
102 -301 104 -570 3 -396 -48 -599 -183 -732 -33 -32 -106 -83 -119 -83 -6 0
-11 -5 -11 -11 0 -5 -5 -7 -10 -4 -6 4 -16 2 -23 -3 -12 -9 -46 -19 -102 -30
-59 -11 -269 -6 -310 8 -22 7 -47 14 -55 15 -70 9 -197 113 -237 195 -40 82
-54 122 -57 158 0 12 -4 22 -7 22 -5 0 -17 47 -35 145 -4 22 -8 42 -9 45 -1 3
-5 43 -9 90 -4 47 -9 99 -11 115 -1 17 -3 57 -4 91 l-1 61 -517 -1 -518 -1 3
-125 c4 -196 24 -346 66 -495 1 -5 8 -30 15 -55 7 -25 15 -52 18 -60 3 -8 7
-22 9 -30 2 -8 7 -23 13 -35 36 -74 98 -200 106 -216 5 -10 13 -19 17 -19 5 0
8 -6 8 -12 0 -14 72 -110 131 -175 49 -55 176 -160 230 -192 42 -26 194 -104
197 -102 1 1 28 -7 60 -19 31 -12 64 -24 72 -26 117 -30 187 -45 230 -48 14
-1 30 -4 35 -7 21 -11 98 -14 350 -14 227 1 327 5 425 19 106 15 281 54 330
73 8 3 22 7 31 9 48 10 290 125 317 151 7 7 18 13 23 13 11 0 89 58 101 75 4
6 8 7 8 3 0 -5 8 0 18 10 11 9 45 42 78 73 133 127 251 310 305 474 12 39 27
76 32 82 5 7 7 13 4 13 -3 0 -1 15 4 33 5 17 12 47 15 66 3 18 8 43 10 55 23
114 37 245 38 344 0 34 4 62 9 62 4 0 5 6 1 12 -12 19 -12 48 0 48 7 0 7 3 1
8 -5 4 -10 43 -10 87 0 44 -3 85 -6 90 -4 6 -6 17 -6 25 0 38 -15 131 -32 197
-10 40 -16 74 -13 77 3 4 0 6 -6 6 -7 0 -11 3 -10 8 2 11 -13 62 -33 110 -10
23 -19 44 -19 47 -1 11 -67 125 -102 177 -77 115 -211 225 -350 287 -73 33
-172 68 -208 75 -14 2 -25 5 -25 6 0 2 -24 7 -70 15 -56 10 -74 21 -47 29 11
4 29 9 39 11 10 2 30 8 44 13 15 6 30 8 33 5 3 -4 6 -1 6 5 0 7 3 11 8 10 4
-2 27 6 52 16 25 11 48 19 53 18 4 -1 7 2 7 8 0 5 5 10 11 10 36 0 193 127
280 226 108 123 213 360 234 526 4 29 8 55 10 58 6 10 17 178 18 265 0 92 -9
240 -18 285 -3 14 -8 45 -11 70 -3 25 -9 59 -14 75 -5 17 -19 62 -30 100 -12
39 -27 84 -35 101 -8 17 -18 40 -22 50 -18 43 -95 174 -103 174 -5 0 -11 9
-15 20 -9 28 -146 162 -213 206 -31 22 -59 42 -62 45 -3 3 -9 8 -15 10 -5 2
-39 20 -75 38 -36 19 -71 36 -79 37 -8 2 -17 7 -20 12 -3 5 -17 11 -31 14 -14
3 -52 16 -85 28 -33 12 -67 24 -75 26 -8 2 -35 8 -60 15 -74 18 -143 30 -182
32 -10 1 -18 4 -18 7 0 3 -24 6 -53 8 -82 5 -544 11 -548 7z"/>
<path d="M3450 6170 c-5 -3 48 -118 117 -255 69 -138 165 -329 214 -425 l88
-176 351 1 c193 0 350 -4 350 -9 0 -5 6 -4 13 1 14 11 122 11 133 0 4 -3 14
-3 23 2 13 6 376 7 376 1 0 -1 18 -3 40 -5 54 -4 117 -19 210 -49 22 -7 139
-66 131 -66 -5 0 9 -12 30 -26 48 -32 114 -102 134 -140 8 -16 17 -31 21 -34
8 -7 45 -90 58 -131 32 -98 40 -176 36 -334 -3 -157 -11 -218 -26 -223 -5 -2
-7 -8 -3 -13 8 -14 -42 -138 -81 -199 -39 -61 -116 -138 -174 -174 -43 -28
-155 -77 -186 -82 -11 -1 -39 -8 -62 -13 -73 -19 -151 -23 -408 -23 -137 0
-253 -2 -258 -5 -4 -2 1 -21 12 -41 11 -20 37 -73 57 -117 20 -44 46 -100 57
-125 11 -25 21 -47 22 -50 1 -3 14 -32 30 -65 16 -33 30 -62 30 -65 2 -6 67
-146 98 -210 12 -25 22 -47 22 -50 1 -3 24 -54 53 -114 29 -59 52 -110 52
-112 0 -2 20 -45 44 -96 71 -151 96 -208 96 -218 0 -6 5 -10 10 -10 6 0 10 -6
10 -14 0 -8 26 -69 58 -137 32 -68 66 -140 75 -159 8 -19 36 -79 61 -133 25
-55 46 -103 46 -108 0 -5 5 -9 12 -9 6 0 8 -3 5 -6 -4 -4 0 -19 8 -33 13 -24
77 -159 80 -171 3 -10 113 -249 141 -304 8 -16 14 -35 14 -43 0 -7 5 -13 10
-13 6 0 10 -6 10 -12 0 -7 19 -51 41 -98 36 -75 59 -124 64 -140 1 -3 18 -39
38 -81 20 -42 37 -82 37 -88 0 -6 5 -11 10 -11 6 0 10 -9 10 -19 0 -11 4 -22
9 -25 5 -3 240 -5 522 -5 283 0 540 0 572 -1 52 -1 72 9 47 25 -5 3 -10 15
-10 26 0 10 -4 19 -10 19 -5 0 -9 4 -7 8 1 4 -8 28 -20 52 -25 54 -69 149
-113 245 -17 39 -40 86 -50 107 -10 20 -16 39 -13 42 4 3 1 6 -5 6 -7 0 -12 5
-12 10 0 10 -28 74 -86 194 -13 28 -24 56 -24 63 0 7 -4 13 -10 13 -5 0 -10 4
-10 9 0 5 -5 22 -12 38 -6 15 -11 31 -10 36 1 4 -1 7 -6 7 -4 0 -13 15 -21 32
-19 45 -67 151 -101 223 -15 33 -34 75 -42 92 -7 18 -16 33 -19 33 -3 0 -6 6
-6 13 0 6 -20 53 -43 102 -23 50 -55 119 -72 155 -17 36 -39 83 -49 106 -10
22 -19 46 -19 52 0 7 -4 12 -10 12 -5 0 -10 9 -10 19 0 11 -4 22 -9 26 -5 3
-15 22 -22 43 -6 20 -16 40 -21 43 -5 3 -10 12 -12 20 -1 8 -15 41 -31 74 -16
33 -29 62 -30 65 0 3 -6 15 -13 26 -6 12 -8 24 -5 28 3 3 1 6 -5 6 -7 0 -12 4
-12 10 0 5 -12 35 -27 67 -15 32 -28 63 -28 68 0 6 -6 16 -12 23 -20 21 -16
26 35 52 26 14 49 27 52 30 3 3 32 23 64 45 33 22 65 46 73 53 7 7 13 10 13 7
0 -4 53 46 118 111 77 78 140 153 183 219 66 100 138 240 155 300 1 6 12 36
23 67 12 32 23 68 25 80 3 13 5 23 6 23 3 0 18 75 26 130 3 22 8 51 11 65 9
43 11 352 3 410 -12 83 -20 133 -25 160 -3 14 -7 36 -10 50 -2 14 -14 52 -25
85 -11 33 -22 67 -24 75 -12 45 -90 208 -131 275 -14 22 -28 47 -32 55 -3 8
-9 17 -13 20 -3 3 -19 23 -36 45 -49 67 -225 255 -239 255 -5 0 -36 24 -59 46
-20 19 -224 148 -236 150 -3 0 -39 16 -80 35 -72 34 -191 80 -203 78 -1 0 -15
5 -32 11 -33 13 -30 12 -130 35 -76 17 -90 20 -150 29 -85 13 -108 15 -203 22
-114 7 -1720 11 -1732 4z"/>
</g>
</svg>
