<svg version="1" xmlns="http://www.w3.org/2000/svg" width="1365.333" height="1365.333" viewBox="0 0 1024.000000 1024.000000"><path d="M710 225.2c-17.6 13.4-45.3 32-62.3 41.7-16.7 9.6-42.3 21.8-57.7 27.6-6.9 2.6-12.6 4.8-12.7 4.9-.5.4 29.2 86.5 30.2 87.4 1.3 1.3 26.5-8.2 57-21.5 9.4-4.1 17.6-7.7 18.3-8 .9-.4 1.2 16.2 1.2 81.1V520h23v5.1c0 4.3.2 5 1.8 4.5 8.9-2.6 23.7-5.8 51.2-11.1l32.5-6.2.3-27.1.2-27.2h58v-11h-58V214h-34.2l-34.3.1-14.5 11.1zm82 227.3v4.5h-28v-9h28v4.5zM353 217c-37 2.6-68.9 11.8-90.1 26-13.7 9.2-28.6 27.3-36.3 44.1-4.7 10.3-8.3 22.3-10.8 35.9-3 16.5-3 52.3 0 69 4 22.2 12.7 43.2 24.9 60.2 7.3 10.2 21.5 24.5 32.1 32.3l8.2 6-25.5.3-25.5.2v12h108v46h87v35.5c0 19.5.1 35.5.3 35.5.8 0 104.6-30 107-30.9l2.7-1.1v-70h-16v-15h39v-12h-40v11H389v-10h49c27 0 49-.4 49-.8 0-.9-12.8-10.4-22.5-16.9-15.2-10-28-16.5-59.5-30.3-26.8-11.7-51-23.6-59-29-7.3-5-17.4-15.8-20.6-22.3-5.4-10.5-6.6-15.5-7.1-29.4-.9-20.9 2.3-32 11.9-41.6 9.1-9.1 21.7-12.7 44.6-12.7 15.8 0 22.7 1.4 34 6.5 6.3 2.9 8.4 4.5 11.6 8.8 8.1 10.9 13.1 24.6 14.3 39.1l.6 7.9 16.6-.7c14.5-.5 28-1.4 63.5-4.2l8.9-.7-.7-10.6c-1.6-25.8-8.8-52.3-20.5-76.2-16.8-34-47.2-53.7-93.1-60.3-13.4-1.9-40.9-2.7-57-1.6zM766.3 535c-39 7.5-51.3 10.7-51.3 13.2 0 1.6-.9 1.8-7.1 1.8-3.8 0-9 .5-11.5 1.1l-4.4 1.1V628h9v107h-9v50h57v7h68V627h-41v-10h25v-88l-2.2.1c-1.3 0-15.9 2.7-32.5 5.9zM684 534.5c0 1.8.3 1.8 6 .1l4.5-1.5h-5.2c-4.1-.1-5.3.2-5.3 1.4zM195 601.5v6.5l-18.7.2-18.8.3v21l18.8.3 18.7.2v48.2l2.3-.6c1.2-.3 4.7-1 7.7-1.6 3-.6 9.6-2.5 14.5-4.1 10.3-3.3 71.1-17.3 79.9-18.4 3.3-.4 7-1.1 8.3-1.6l2.3-.9v-56H195v6.5zm33 17.5v10h-32v-20h32v10zM532 607.9c-4.7 1.5-28.9 8.5-53.7 15.6L433 636.4V704H318v-18.1c0-16.8-.1-18-1.8-17.5-1 .3-5.1 1-9.2 1.6-10.6 1.3-72.2 15.5-80 18.4-3.6 1.3-10.5 3.2-15.3 4.1l-8.7 1.8V705h59v87h249v-87h32v-50c0-39.4-.3-50-1.2-49.9-.7 0-5.1 1.3-9.8 2.8z"/></svg>