<?xml version="1.0" standalone="no"?>
<!DOCTYPE svg PUBLIC "-//W3C//DTD SVG 20010904//EN"
 "http://www.w3.org/TR/2001/REC-SVG-20010904/DTD/svg10.dtd">
<svg version="1.0" xmlns="http://www.w3.org/2000/svg"
 width="1024.000000pt" height="1024.000000pt" viewBox="0 0 1024.000000 1024.000000"
 preserveAspectRatio="xMidYMid meet">
<metadata>
Created by potrace 1.14, written by Peter Selinger 2001-2017
</metadata>
<g transform="translate(0.000000,1024.000000) scale(0.100000,-0.100000)"
fill="#000000" stroke="none">
<path d="M7150 8024 c-419 -329 -972 -644 -1343 -764 -21 -6 -37 -17 -34 -24
2 -6 70 -203 152 -437 l148 -427 41 5 c74 9 306 97 624 237 l102 45 0 -810 0
-809 118 -2 c84 -1 97 -3 45 -5 l-73 -4 0 -38 c0 -21 2 -40 5 -43 4 -3 46 5
95 17 87 22 90 22 90 4 0 -10 3 -19 6 -19 3 0 58 13 122 29 101 26 228 51 640
128 l82 16 0 268 0 269 259 0 c142 0 273 3 290 6 30 6 31 9 31 55 l0 49 -290
0 -290 0 0 1159 0 1159 -31 6 c-17 3 -181 6 -363 6 l-331 -1 -95 -75z m770
-2309 l0 -45 -120 0 -120 0 0 45 0 45 120 0 120 0 0 -45z"/>
<path d="M3549 8070 c-606 -39 -981 -214 -1206 -563 -159 -245 -230 -590 -204
-984 23 -334 107 -582 273 -808 75 -103 243 -270 336 -336 l64 -44 -256 -3
-256 -2 0 -60 0 -60 540 0 540 0 0 -90 0 -90 -70 0 -70 0 0 -140 0 -140 435 0
435 0 0 -60 0 -60 70 0 70 0 0 -295 0 -294 33 5 c36 7 860 239 1010 285 l97
31 0 348 0 349 -82 3 -83 3 0 70 0 70 198 3 197 2 0 54 c0 52 -1 54 -31 60
-17 3 -116 6 -220 6 l-189 0 0 -55 0 -55 -625 0 -625 0 0 50 0 50 490 0 c270
0 490 3 490 8 -1 8 -118 95 -230 169 -128 85 -267 159 -460 243 -376 165 -458
204 -584 271 -143 77 -158 87 -235 162 -68 66 -116 140 -149 231 -21 60 -26
93 -30 212 -7 219 26 325 131 421 94 86 192 113 402 113 212 0 373 -53 447
-149 81 -105 134 -247 145 -388 l6 -83 71 0 c122 0 721 41 820 56 l38 6 -7
102 c-21 306 -132 661 -272 874 -177 268 -481 435 -883 486 -150 19 -413 26
-571 16z"/>
<path d="M7525 4890 c-411 -79 -515 -107 -515 -135 0 -12 -15 -15 -72 -16 -40
0 -91 -6 -113 -13 -38 -11 -40 -14 -43 -54 l-3 -42 70 0 71 0 0 -335 0 -335
45 0 45 0 0 -535 0 -535 -45 0 -45 0 0 -250 0 -250 285 0 285 0 0 -35 0 -35
360 0 360 0 0 825 0 825 -205 0 -205 0 0 50 0 50 125 0 125 0 0 440 c0 412 -1
440 -17 440 -16 0 -51 -7 -130 -25 -16 -4 -23 -1 -23 10 0 22 -22 19 -355 -45z"/>
<path d="M6700 4895 c0 -18 13 -18 60 0 l35 13 -47 1 c-36 1 -48 -3 -48 -14z"/>
<path d="M6885 4901 c-8 -15 8 -20 33 -10 12 5 22 10 22 11 0 8 -50 7 -55 -1z"/>
<path d="M1950 4220 l0 -70 -185 0 -185 0 0 -105 0 -105 185 0 185 0 0 -240 0
-239 33 5 c120 21 200 39 252 59 120 44 803 195 886 195 5 0 9 116 9 285 l0
285 -590 0 -590 0 0 -70z m330 -170 l0 -100 -140 0 -140 0 0 100 0 100 140 0
140 0 0 -100z"/>
<path d="M5320 4161 c-47 -15 -289 -85 -537 -156 l-453 -129 0 -338 0 -338
-560 0 -560 0 0 178 0 178 -27 -2 c-143 -11 -784 -150 -913 -198 -36 -13 -105
-32 -153 -41 l-87 -18 0 -53 0 -54 295 0 295 0 0 -435 0 -435 1265 0 1265 0 0
435 0 435 160 0 160 0 0 498 0 498 -32 1 c-18 0 -71 -12 -118 -26z"/>
</g>
</svg>
